<mxfile host="app.diagrams.net" modified="2023-06-07T00:48:04.528Z" agent="Mozilla/5.0 (Windows NT 10.0; Win64; x64) AppleWebKit/537.36 (KHTML, like Gecko) Chrome/114.0.0.0 Safari/537.36" etag="dxQzBURrZS4xABzfZVtB" version="21.3.7" type="device">
  <diagram name="Page-1" id="Yz-ylFjGClZjRPsE3QA8">
    <mxGraphModel dx="1434" dy="756" grid="1" gridSize="10" guides="1" tooltips="1" connect="1" arrows="1" fold="1" page="1" pageScale="1" pageWidth="827" pageHeight="1169" math="0" shadow="0">
      <root>
        <mxCell id="0" />
        <mxCell id="1" parent="0" />
        <mxCell id="qiq4OlqsNWbcKOf1IQns-6" style="edgeStyle=orthogonalEdgeStyle;rounded=0;orthogonalLoop=1;jettySize=auto;html=1;entryX=0;entryY=0.5;entryDx=0;entryDy=0;" edge="1" parent="1" source="qiq4OlqsNWbcKOf1IQns-1" target="qiq4OlqsNWbcKOf1IQns-2">
          <mxGeometry relative="1" as="geometry" />
        </mxCell>
        <mxCell id="qiq4OlqsNWbcKOf1IQns-1" value="관리자" style="shape=umlActor;verticalLabelPosition=bottom;verticalAlign=top;html=1;outlineConnect=0;" vertex="1" parent="1">
          <mxGeometry x="40" y="220" width="30" height="60" as="geometry" />
        </mxCell>
        <mxCell id="qiq4OlqsNWbcKOf1IQns-7" style="edgeStyle=orthogonalEdgeStyle;rounded=0;orthogonalLoop=1;jettySize=auto;html=1;entryX=0;entryY=0.5;entryDx=0;entryDy=0;" edge="1" parent="1" source="qiq4OlqsNWbcKOf1IQns-2" target="qiq4OlqsNWbcKOf1IQns-3">
          <mxGeometry relative="1" as="geometry" />
        </mxCell>
        <mxCell id="qiq4OlqsNWbcKOf1IQns-8" style="edgeStyle=orthogonalEdgeStyle;rounded=0;orthogonalLoop=1;jettySize=auto;html=1;entryX=0;entryY=0.5;entryDx=0;entryDy=0;" edge="1" parent="1" source="qiq4OlqsNWbcKOf1IQns-2" target="qiq4OlqsNWbcKOf1IQns-4">
          <mxGeometry relative="1" as="geometry" />
        </mxCell>
        <mxCell id="qiq4OlqsNWbcKOf1IQns-9" style="edgeStyle=orthogonalEdgeStyle;rounded=0;orthogonalLoop=1;jettySize=auto;html=1;entryX=0;entryY=0.5;entryDx=0;entryDy=0;" edge="1" parent="1" source="qiq4OlqsNWbcKOf1IQns-2" target="qiq4OlqsNWbcKOf1IQns-5">
          <mxGeometry relative="1" as="geometry" />
        </mxCell>
        <mxCell id="qiq4OlqsNWbcKOf1IQns-2" value="거래처리스트보기" style="ellipse;whiteSpace=wrap;html=1;" vertex="1" parent="1">
          <mxGeometry x="110" y="210" width="120" height="80" as="geometry" />
        </mxCell>
        <mxCell id="qiq4OlqsNWbcKOf1IQns-11" style="edgeStyle=orthogonalEdgeStyle;rounded=0;orthogonalLoop=1;jettySize=auto;html=1;entryX=0;entryY=0.5;entryDx=0;entryDy=0;entryPerimeter=0;" edge="1" parent="1" source="qiq4OlqsNWbcKOf1IQns-3" target="qiq4OlqsNWbcKOf1IQns-10">
          <mxGeometry relative="1" as="geometry" />
        </mxCell>
        <mxCell id="qiq4OlqsNWbcKOf1IQns-3" value="거래처추가" style="ellipse;whiteSpace=wrap;html=1;" vertex="1" parent="1">
          <mxGeometry x="325" y="169" width="120" height="80" as="geometry" />
        </mxCell>
        <mxCell id="qiq4OlqsNWbcKOf1IQns-12" style="edgeStyle=orthogonalEdgeStyle;rounded=0;orthogonalLoop=1;jettySize=auto;html=1;entryX=0;entryY=0.5;entryDx=0;entryDy=0;entryPerimeter=0;" edge="1" parent="1" source="qiq4OlqsNWbcKOf1IQns-4" target="qiq4OlqsNWbcKOf1IQns-10">
          <mxGeometry relative="1" as="geometry" />
        </mxCell>
        <mxCell id="qiq4OlqsNWbcKOf1IQns-4" value="거래처 상세보기" style="ellipse;whiteSpace=wrap;html=1;" vertex="1" parent="1">
          <mxGeometry x="325" y="263" width="120" height="80" as="geometry" />
        </mxCell>
        <mxCell id="qiq4OlqsNWbcKOf1IQns-13" style="edgeStyle=orthogonalEdgeStyle;rounded=0;orthogonalLoop=1;jettySize=auto;html=1;entryX=0;entryY=0.5;entryDx=0;entryDy=0;entryPerimeter=0;" edge="1" parent="1" source="qiq4OlqsNWbcKOf1IQns-5" target="qiq4OlqsNWbcKOf1IQns-10">
          <mxGeometry relative="1" as="geometry" />
        </mxCell>
        <mxCell id="qiq4OlqsNWbcKOf1IQns-5" value="거래처 수정" style="ellipse;whiteSpace=wrap;html=1;" vertex="1" parent="1">
          <mxGeometry x="325" y="369" width="120" height="80" as="geometry" />
        </mxCell>
        <mxCell id="qiq4OlqsNWbcKOf1IQns-10" value="거래처 정보 Table" style="shape=cylinder3;whiteSpace=wrap;html=1;boundedLbl=1;backgroundOutline=1;size=15;" vertex="1" parent="1">
          <mxGeometry x="540" y="250" width="130" height="106" as="geometry" />
        </mxCell>
      </root>
    </mxGraphModel>
  </diagram>
</mxfile>
